<?xml version="1.0" encoding="utf-8"?>
<!-- Generated by IcoMoon.io -->
<svg version="1.1" xmlns="http://www.w3.org/2000/svg" xmlns:xlink="http://www.w3.org/1999/xlink" width="40" height="40" viewBox="0 0 40 40">
  <path fill="#444444" d="M35.604 24.596c0 0 3.234 3.194 4.034 4.672 0.022 0.032 0.032 0.056 0.036 0.070 0.326 0.546 0.406 0.974 0.246 1.29-0.27 0.522-1.184 0.784-1.494 0.806 0 0-5.556 0-5.716 0-0.398 0-1.226-0.104-2.234-0.8-0.77-0.538-1.536-1.424-2.278-2.29-1.108-1.286-2.066-2.402-3.036-2.402-0.124 0-0.244 0.020-0.36 0.060-0.734 0.232-1.666 1.278-1.666 4.064 0 0.872-0.688 1.368-1.17 1.368 0 0-2.496 0-2.618 0-0.892 0-5.536-0.312-9.654-4.654-5.046-5.316-9.578-15.98-9.622-16.074-0.282-0.69 0.31-1.066 0.95-1.066h5.772c0.774 0 1.026 0.468 1.202 0.888 0.204 0.482 0.96 2.41 2.2 4.576 2.008 3.524 3.242 4.958 4.228 4.958 0.186 0 0.362-0.046 0.528-0.14 1.288-0.708 1.048-5.308 0.988-6.256 0-0.184-0.002-2.054-0.662-2.958-0.472-0.648-1.276-0.9-1.762-0.992 0.13-0.188 0.406-0.476 0.76-0.646 0.882-0.44 2.476-0.504 4.058-0.504h0.878c1.716 0.024 2.16 0.134 2.784 0.292 1.256 0.3 1.28 1.114 1.17 3.886-0.032 0.792-0.066 1.684-0.066 2.734 0 0.224-0.010 0.474-0.010 0.728-0.038 1.422-0.088 3.024 0.916 3.682 0.128 0.080 0.278 0.124 0.434 0.124 0.348 0 1.39 0 4.216-4.85 1.24-2.142 2.2-4.668 2.266-4.858 0.056-0.106 0.224-0.404 0.428-0.524 0.156-0.096 0.364-0.112 0.472-0.112h6.79c0.74 0 1.242 0.112 1.34 0.392 0.164 0.454-0.032 1.84-3.132 6.032-0.522 0.698-0.98 1.302-1.382 1.83-2.81 3.688-2.81 3.874 0.166 6.674z"></path>
</svg>